<svg xmlns="http://www.w3.org/2000/svg" xmlns:xlink="http://www.w3.org/1999/xlink" width="281" zoomAndPan="magnify" viewBox="0 0 210.75 329.999987" height="440" preserveAspectRatio="xMidYMid meet" version="1.0"><defs><clipPath id="ddbcb7e773"><path d="M 38 160 L 111 160 L 111 233 L 38 233 Z M 38 160 " clip-rule="nonzero"/></clipPath><clipPath id="312e3f8f67"><path d="M 115.308594 165.839844 L 105.019531 237.011719 L 33.847656 226.722656 L 44.136719 155.550781 Z M 115.308594 165.839844 " clip-rule="nonzero"/></clipPath><clipPath id="ff905c43ac"><path d="M 115.308594 165.839844 L 105.007812 237.105469 L 33.738281 226.804688 L 44.042969 155.535156 Z M 115.308594 165.839844 " clip-rule="nonzero"/></clipPath><clipPath id="a05032b0e1"><path d="M 110.160156 201.472656 C 113.003906 181.792969 99.355469 163.53125 79.675781 160.6875 C 59.996094 157.84375 41.734375 171.488281 38.890625 191.167969 C 36.046875 210.847656 49.695312 229.109375 69.375 231.953125 C 89.054688 234.800781 107.3125 221.152344 110.160156 201.472656 Z M 110.160156 201.472656 " clip-rule="nonzero"/></clipPath><clipPath id="cb17471b91"><path d="M 79 102 L 152 102 L 152 175 L 79 175 Z M 79 102 " clip-rule="nonzero"/></clipPath><clipPath id="8e7f9b83a8"><path d="M 64.949219 130.03125 L 123.246094 87.921875 L 165.355469 146.222656 L 107.054688 188.328125 Z M 64.949219 130.03125 " clip-rule="nonzero"/></clipPath><clipPath id="a3271ab17b"><path d="M 64.949219 130.03125 L 123.324219 87.867188 L 165.484375 146.242188 L 107.109375 188.40625 Z M 64.949219 130.03125 " clip-rule="nonzero"/></clipPath><clipPath id="7399e3a825"><path d="M 94.136719 108.949219 C 78.015625 120.589844 74.386719 143.097656 86.027344 159.21875 C 97.671875 175.335938 120.175781 178.964844 136.296875 167.324219 C 152.417969 155.679688 156.046875 133.175781 144.402344 117.054688 C 132.761719 100.9375 110.253906 97.308594 94.136719 108.949219 Z M 94.136719 108.949219 " clip-rule="nonzero"/></clipPath><clipPath id="ee62d225ee"><path d="M 36 87 L 76 87 L 76 127 L 36 127 Z M 36 87 " clip-rule="nonzero"/></clipPath><clipPath id="bdae1bb72a"><path d="M 47.839844 75.503906 L 87.011719 98.96875 L 63.542969 138.140625 L 24.371094 114.675781 Z M 47.839844 75.503906 " clip-rule="nonzero"/></clipPath><clipPath id="973073f4c4"><path d="M 67.425781 87.238281 L 65.65625 104.324219 L 75.277344 118.554688 L 58.1875 116.789062 L 43.957031 126.410156 L 45.722656 109.320312 L 36.105469 95.089844 L 53.191406 96.855469 Z M 67.425781 87.238281 " clip-rule="nonzero"/></clipPath><clipPath id="c3b8b793e9"><path d="M 56 136 L 78 136 L 78 158 L 56 158 Z M 56 136 " clip-rule="nonzero"/></clipPath><clipPath id="2a197e1e8a"><path d="M 48.929688 143.417969 L 70.25 128.785156 L 84.882812 150.105469 L 63.566406 164.738281 Z M 48.929688 143.417969 " clip-rule="nonzero"/></clipPath><clipPath id="b19e7c323f"><path d="M 59.589844 136.101562 L 67.972656 141.042969 L 77.566406 139.445312 L 72.628906 147.824219 L 74.222656 157.421875 L 65.84375 152.480469 L 56.246094 154.078125 L 61.1875 145.699219 Z M 59.589844 136.101562 " clip-rule="nonzero"/></clipPath><clipPath id="6ee6d25208"><path d="M 9 132 L 38 132 L 38 161 L 9 161 Z M 9 132 " clip-rule="nonzero"/></clipPath><clipPath id="8060b2c40b"><path d="M 0 142.621094 L 27.699219 123.203125 L 47.117188 150.902344 L 19.417969 170.320312 Z M 0 142.621094 " clip-rule="nonzero"/></clipPath><clipPath id="4b70f6156d"><path d="M 13.851562 132.914062 L 24.875 139.265625 L 37.410156 137.054688 L 31.054688 148.082031 L 33.269531 160.613281 L 22.242188 154.257812 L 9.710938 156.472656 L 16.0625 145.445312 Z M 13.851562 132.914062 " clip-rule="nonzero"/></clipPath><clipPath id="f0af364537"><path d="M 112 175 L 141 175 L 141 203 L 112 203 Z M 112 175 " clip-rule="nonzero"/></clipPath><clipPath id="6cd3bc1a28"><path d="M 107.820312 180.039062 L 135.355469 170.320312 L 145.074219 197.855469 L 117.539062 207.574219 Z M 107.820312 180.039062 " clip-rule="nonzero"/></clipPath><clipPath id="4dcf7f7804"><path d="M 121.589844 175.179688 L 129.28125 183.019531 L 140.214844 184.085938 L 132.375 191.78125 L 131.308594 202.714844 L 123.613281 194.875 L 112.679688 193.804688 L 120.519531 186.113281 Z M 121.589844 175.179688 " clip-rule="nonzero"/></clipPath><clipPath id="5c6f057e93"><path d="M 151 160 L 197 160 L 197 206 L 151 206 Z M 151 160 " clip-rule="nonzero"/></clipPath><clipPath id="4bb8471719"><path d="M 164.929688 146.765625 L 209.96875 173.75 L 182.984375 218.792969 L 137.945312 191.808594 Z M 164.929688 146.765625 " clip-rule="nonzero"/></clipPath><clipPath id="f1d47d35ee"><path d="M 187.449219 160.257812 L 185.417969 179.90625 L 196.476562 196.269531 L 176.828125 194.238281 L 160.464844 205.300781 L 162.496094 185.652344 L 151.4375 169.285156 L 171.085938 171.320312 Z M 187.449219 160.257812 " clip-rule="nonzero"/></clipPath><clipPath id="5c3ffe8928"><path d="M 112 218 L 141 218 L 141 247 L 112 247 Z M 112 218 " clip-rule="nonzero"/></clipPath><clipPath id="096acafa5d"><path d="M 101.59375 235.492188 L 123.382812 207.566406 L 151.304688 229.355469 L 129.515625 257.28125 Z M 101.59375 235.492188 " clip-rule="nonzero"/></clipPath><clipPath id="a4fc37c251"><path d="M 112.488281 221.53125 L 125.472656 224.515625 L 137.34375 218.460938 L 134.359375 231.449219 L 140.410156 243.316406 L 127.425781 240.332031 L 115.554688 246.386719 L 118.539062 233.398438 Z M 112.488281 221.53125 " clip-rule="nonzero"/></clipPath></defs><g clip-path="url(#ddbcb7e773)"><g clip-path="url(#312e3f8f67)"><g clip-path="url(#ff905c43ac)"><g clip-path="url(#a05032b0e1)"><path stroke-linecap="butt" transform="matrix(-0.107182, 0.741404, -0.741404, -0.107182, 115.310153, 165.838538)" fill="none" stroke-linejoin="miter" d="M 48.062739 -0.00198912 C 21.51917 -0.000304708 -0.00102299 21.519704 0.000661428 48.063273 C 0.00234585 74.606842 21.517194 96.127781 48.060763 96.126096 C 74.604331 96.124412 96.124524 74.604403 96.12284 48.060834 C 96.126316 21.516519 74.607054 0.00148732 48.062739 -0.00198912 Z M 48.062739 -0.00198912 " stroke="#000000" stroke-width="36" stroke-opacity="1" stroke-miterlimit="4"/></g></g></g></g><g clip-path="url(#cb17471b91)"><g clip-path="url(#8e7f9b83a8)"><g clip-path="url(#a3271ab17b)"><g clip-path="url(#7399e3a825)"><path stroke-linecap="butt" transform="matrix(0.607281, -0.438609, 0.438609, 0.607281, 64.948407, 130.029846)" fill="none" stroke-linejoin="miter" d="M 48.063438 0.000712245 C 21.519304 -0.00237191 0.0000804121 21.518623 -0.00300374 48.062757 C 0.00119247 74.605716 21.51796 96.121886 48.062094 96.124971 C 74.60928 96.123828 96.125451 74.60706 96.124308 48.059873 C 96.124339 21.519967 74.603344 0.00074327 48.063438 0.000712245 Z M 48.063438 0.000712245 " stroke="#000000" stroke-width="36" stroke-opacity="1" stroke-miterlimit="4"/></g></g></g></g><g clip-path="url(#ee62d225ee)"><g clip-path="url(#bdae1bb72a)"><g clip-path="url(#973073f4c4)"><path fill="#000000" d="M 47.839844 75.503906 L 87.011719 98.96875 L 63.542969 138.140625 L 24.371094 114.675781 Z M 47.839844 75.503906 " fill-opacity="1" fill-rule="nonzero"/></g></g></g><g clip-path="url(#c3b8b793e9)"><g clip-path="url(#2a197e1e8a)"><g clip-path="url(#b19e7c323f)"><path fill="#000000" d="M 48.929688 143.417969 L 70.25 128.785156 L 84.882812 150.105469 L 63.566406 164.738281 Z M 48.929688 143.417969 " fill-opacity="1" fill-rule="nonzero"/></g></g></g><g clip-path="url(#6ee6d25208)"><g clip-path="url(#8060b2c40b)"><g clip-path="url(#4b70f6156d)"><path fill="#000000" d="M 0 142.621094 L 27.699219 123.203125 L 47.117188 150.902344 L 19.417969 170.320312 Z M 0 142.621094 " fill-opacity="1" fill-rule="nonzero"/></g></g></g><g clip-path="url(#f0af364537)"><g clip-path="url(#6cd3bc1a28)"><g clip-path="url(#4dcf7f7804)"><path fill="#000000" d="M 107.820312 180.039062 L 135.355469 170.320312 L 145.074219 197.855469 L 117.539062 207.574219 Z M 107.820312 180.039062 " fill-opacity="1" fill-rule="nonzero"/></g></g></g><g clip-path="url(#5c6f057e93)"><g clip-path="url(#4bb8471719)"><g clip-path="url(#f1d47d35ee)"><path fill="#000000" d="M 164.929688 146.765625 L 209.96875 173.75 L 182.984375 218.792969 L 137.945312 191.808594 Z M 164.929688 146.765625 " fill-opacity="1" fill-rule="nonzero"/></g></g></g><g clip-path="url(#5c3ffe8928)"><g clip-path="url(#096acafa5d)"><g clip-path="url(#a4fc37c251)"><path fill="#000000" d="M 101.59375 235.492188 L 123.382812 207.566406 L 151.304688 229.355469 L 129.515625 257.28125 Z M 101.59375 235.492188 " fill-opacity="1" fill-rule="nonzero"/></g></g></g></svg>