<svg xmlns="http://www.w3.org/2000/svg" xmlns:xlink="http://www.w3.org/1999/xlink" width="281" zoomAndPan="magnify" viewBox="0 0 210.75 181.5" height="242" preserveAspectRatio="xMidYMid meet" version="1.0"><defs><clipPath id="bb2b2c8870"><path d="M 38 84 L 111 84 L 111 157 L 38 157 Z M 38 84 " clip-rule="nonzero"/></clipPath><clipPath id="7059b4c899"><path d="M 115.292969 90.195312 L 105.019531 161.257812 L 33.957031 150.984375 L 44.230469 79.921875 Z M 115.292969 90.195312 " clip-rule="nonzero"/></clipPath><clipPath id="761d5bdd86"><path d="M 115.292969 90.195312 L 105.007812 161.351562 L 33.851562 151.066406 L 44.136719 79.910156 Z M 115.292969 90.195312 " clip-rule="nonzero"/></clipPath><clipPath id="9ab00c06d0"><path d="M 110.152344 125.773438 C 112.992188 106.125 99.367188 87.894531 79.714844 85.050781 C 60.066406 82.210938 41.835938 95.835938 38.996094 115.488281 C 36.15625 135.136719 49.78125 153.367188 69.429688 156.207031 C 89.078125 159.046875 107.3125 145.421875 110.152344 125.773438 Z M 110.152344 125.773438 " clip-rule="nonzero"/></clipPath><clipPath id="945935ffd3"><path d="M 79 26 L 152 26 L 152 99 L 79 99 Z M 79 26 " clip-rule="nonzero"/></clipPath><clipPath id="228a5f5bb6"><path d="M 65.011719 54.441406 L 123.21875 12.402344 L 165.261719 70.609375 L 107.050781 112.652344 Z M 65.011719 54.441406 " clip-rule="nonzero"/></clipPath><clipPath id="d1d01e7afb"><path d="M 65.011719 54.441406 L 123.296875 12.347656 L 165.390625 70.632812 L 107.105469 112.726562 Z M 65.011719 54.441406 " clip-rule="nonzero"/></clipPath><clipPath id="b96d1fb72e"><path d="M 94.152344 33.394531 C 78.058594 45.019531 74.433594 67.488281 86.058594 83.585938 C 97.683594 99.679688 120.152344 103.304688 136.25 91.679688 C 152.34375 80.054688 155.96875 57.582031 144.34375 41.488281 C 132.71875 25.394531 110.246094 21.769531 94.152344 33.394531 Z M 94.152344 33.394531 " clip-rule="nonzero"/></clipPath><clipPath id="9acb47b8f4"><path d="M 36 11 L 76 11 L 76 51 L 36 51 Z M 36 11 " clip-rule="nonzero"/></clipPath><clipPath id="84fb168e4a"><path d="M 47.929688 0 L 87.039062 23.433594 L 63.609375 62.542969 L 24.496094 39.109375 Z M 47.929688 0 " clip-rule="nonzero"/></clipPath><clipPath id="705b05eb7f"><path d="M 67.484375 11.714844 L 65.71875 28.777344 L 75.324219 42.988281 L 58.261719 41.222656 L 44.050781 50.828125 L 45.816406 33.765625 L 36.210938 19.554688 L 53.273438 21.320312 Z M 67.484375 11.714844 " clip-rule="nonzero"/></clipPath><clipPath id="b5582d464a"><path d="M 50 56 L 72 56 L 72 78 L 50 78 Z M 50 56 " clip-rule="nonzero"/></clipPath><clipPath id="5951a9480a"><path d="M 43.320312 63.734375 L 64.609375 49.121094 L 79.21875 70.410156 L 57.933594 85.019531 Z M 43.320312 63.734375 " clip-rule="nonzero"/></clipPath><clipPath id="d7429c0713"><path d="M 53.964844 56.429688 L 62.332031 61.359375 L 71.914062 59.765625 L 66.980469 68.132812 L 68.574219 77.714844 L 60.207031 72.78125 L 50.628906 74.375 L 55.558594 66.007812 Z M 53.964844 56.429688 " clip-rule="nonzero"/></clipPath><clipPath id="529e40d7bd"><path d="M 9 57 L 38 57 L 38 85 L 9 85 Z M 9 57 " clip-rule="nonzero"/></clipPath><clipPath id="6850f1d231"><path d="M 0.164062 67.015625 L 27.820312 47.628906 L 47.210938 75.28125 L 19.554688 94.671875 Z M 0.164062 67.015625 " clip-rule="nonzero"/></clipPath><clipPath id="c2fbc5b12e"><path d="M 13.992188 57.320312 L 25.003906 63.664062 L 37.515625 61.457031 L 31.171875 72.464844 L 33.382812 84.976562 L 22.371094 78.632812 L 9.859375 80.84375 L 16.203125 69.835938 Z M 13.992188 57.320312 " clip-rule="nonzero"/></clipPath><clipPath id="ee12199a83"><path d="M 116 103 L 145 103 L 145 131 L 116 131 Z M 116 103 " clip-rule="nonzero"/></clipPath><clipPath id="53b8cff429"><path d="M 111.792969 108.101562 L 139.285156 98.398438 L 148.988281 125.886719 L 121.496094 135.589844 Z M 111.792969 108.101562 " clip-rule="nonzero"/></clipPath><clipPath id="fb6f24af65"><path d="M 125.539062 103.25 L 133.21875 111.074219 L 144.136719 112.140625 L 136.308594 119.824219 L 135.242188 130.738281 L 127.5625 122.910156 L 116.644531 121.84375 L 124.472656 114.164062 Z M 125.539062 103.25 " clip-rule="nonzero"/></clipPath><clipPath id="a0a8afbc2b"><path d="M 151 84 L 197 84 L 197 130 L 151 130 Z M 151 84 " clip-rule="nonzero"/></clipPath><clipPath id="084582a57f"><path d="M 164.835938 71.152344 L 209.804688 98.09375 L 182.863281 143.066406 L 137.894531 116.125 Z M 164.835938 71.152344 " clip-rule="nonzero"/></clipPath><clipPath id="066b15cfbd"><path d="M 187.320312 84.625 L 185.289062 104.242188 L 196.335938 120.578125 L 176.71875 118.550781 L 160.378906 129.59375 L 162.40625 109.976562 L 151.363281 93.636719 L 170.980469 95.667969 Z M 187.320312 84.625 " clip-rule="nonzero"/></clipPath><clipPath id="7e9cbf20ec"><path d="M 112 141 L 141 141 L 141 170 L 112 170 Z M 112 141 " clip-rule="nonzero"/></clipPath><clipPath id="14d3f69bf8"><path d="M 101.597656 158.992188 L 123.351562 131.113281 L 151.234375 152.867188 L 129.480469 180.746094 Z M 101.597656 158.992188 " clip-rule="nonzero"/></clipPath><clipPath id="8fd04807ce"><path d="M 112.476562 145.050781 L 125.441406 148.03125 L 137.292969 141.988281 L 134.3125 154.953125 L 140.355469 166.804688 L 127.390625 163.824219 L 115.539062 169.867188 L 118.519531 156.902344 Z M 112.476562 145.050781 " clip-rule="nonzero"/></clipPath></defs><g clip-path="url(#bb2b2c8870)"><g clip-path="url(#7059b4c899)"><g clip-path="url(#761d5bdd86)"><g clip-path="url(#9ab00c06d0)"><path stroke-linecap="butt" transform="matrix(-0.107015, 0.740244, -0.740244, -0.107015, 115.294612, 90.19538)" fill="none" stroke-linejoin="miter" d="M 48.062379 -0.00149516 C 21.519323 -0.000617209 0.00228184 21.516116 -0.0012619 48.065088 C -0.000383952 74.608145 21.516349 96.125186 48.064574 96.123561 C 74.607631 96.122683 96.124672 74.60595 96.123794 48.062893 C 96.122916 21.519837 74.605436 -0.0023731 48.062379 -0.00149516 Z M 48.062379 -0.00149516 " stroke="#000000" stroke-width="30" stroke-opacity="1" stroke-miterlimit="4"/></g></g></g></g><g clip-path="url(#945935ffd3)"><g clip-path="url(#228a5f5bb6)"><g clip-path="url(#d1d01e7afb)"><g clip-path="url(#b96d1fb72e)"><path stroke-linecap="butt" transform="matrix(0.606331, -0.437923, 0.437923, 0.606331, 65.011645, 54.442691)" fill="none" stroke-linejoin="miter" d="M 48.061716 -0.00136823 C 21.517864 0.000012715 -0.000261293 21.515444 -0.00193826 48.06353 C -0.000557317 74.607383 21.514874 96.125508 48.06296 96.127185 C 74.606813 96.125804 96.127996 74.606139 96.126615 48.062286 C 96.125234 21.518434 74.605568 -0.00274917 48.061716 -0.00136823 Z M 48.061716 -0.00136823 " stroke="#000000" stroke-width="30" stroke-opacity="1" stroke-miterlimit="4"/></g></g></g></g><g clip-path="url(#9acb47b8f4)"><g clip-path="url(#84fb168e4a)"><g clip-path="url(#705b05eb7f)"><path fill="#000000" d="M 47.929688 0 L 87.039062 23.433594 L 63.609375 62.542969 L 24.496094 39.109375 Z M 47.929688 0 " fill-opacity="1" fill-rule="nonzero"/></g></g></g><g clip-path="url(#b5582d464a)"><g clip-path="url(#5951a9480a)"><g clip-path="url(#d7429c0713)"><path fill="#000000" d="M 43.320312 63.734375 L 64.609375 49.121094 L 79.21875 70.410156 L 57.933594 85.019531 Z M 43.320312 63.734375 " fill-opacity="1" fill-rule="nonzero"/></g></g></g><g clip-path="url(#529e40d7bd)"><g clip-path="url(#6850f1d231)"><g clip-path="url(#c2fbc5b12e)"><path fill="#000000" d="M 0.164062 67.015625 L 27.820312 47.628906 L 47.210938 75.28125 L 19.554688 94.671875 Z M 0.164062 67.015625 " fill-opacity="1" fill-rule="nonzero"/></g></g></g><g clip-path="url(#ee12199a83)"><g clip-path="url(#53b8cff429)"><g clip-path="url(#fb6f24af65)"><path fill="#000000" d="M 111.792969 108.101562 L 139.285156 98.398438 L 148.988281 125.886719 L 121.496094 135.589844 Z M 111.792969 108.101562 " fill-opacity="1" fill-rule="nonzero"/></g></g></g><g clip-path="url(#a0a8afbc2b)"><g clip-path="url(#084582a57f)"><g clip-path="url(#066b15cfbd)"><path fill="#000000" d="M 164.835938 71.152344 L 209.804688 98.09375 L 182.863281 143.066406 L 137.894531 116.125 Z M 164.835938 71.152344 " fill-opacity="1" fill-rule="nonzero"/></g></g></g><g clip-path="url(#7e9cbf20ec)"><g clip-path="url(#14d3f69bf8)"><g clip-path="url(#8fd04807ce)"><path fill="#000000" d="M 101.597656 158.992188 L 123.351562 131.113281 L 151.234375 152.867188 L 129.480469 180.746094 Z M 101.597656 158.992188 " fill-opacity="1" fill-rule="nonzero"/></g></g></g></svg>